<svg width="1280" height="720" viewBox="0 0 1280 720" fill="none" xmlns="http://www.w3.org/2000/svg">
  <rect width="1280" height="720" fill="#05070d"/>
  <radialGradient id="g" cx="0" cy="0" r="1" gradientUnits="userSpaceOnUse" gradientTransform="translate(760 260) rotate(110) scale(520 700)">
    <stop stop-color="#163451"/>
    <stop offset="0.54" stop-color="#091321"/>
    <stop offset="1" stop-color="#05070d"/>
  </radialGradient>
  <rect width="1280" height="720" fill="url(#g)"/>
  <path d="M232 454C314 358 365 290 454 307C540 324 598 260 664 240C767 209 844 261 941 208C1035 157 1118 202 1176 292" stroke="#dff4ff" stroke-opacity=".35" stroke-width="2"/>
  <path d="M304 521C392 439 448 420 548 438C653 457 709 359 816 374C898 386 966 442 1075 396" stroke="#dff4ff" stroke-opacity=".22" stroke-width="1.5"/>
  <g opacity=".65">
    <circle cx="596" cy="344" r="52" fill="white" fill-opacity=".06"/>
    <circle cx="596" cy="344" r="12" fill="white"/>
    <circle cx="596" cy="344" r="70" stroke="white" stroke-opacity=".16"/>
    <text x="596" y="438" text-anchor="middle" fill="white" font-family="Inter,Arial" font-size="28" font-weight="700">Shanghai</text>
    <text x="596" y="474" text-anchor="middle" fill="#9fb2c8" font-family="Inter,Arial" font-size="18">3 relationships · score 86</text>
  </g>
  <g opacity=".75">
    <circle cx="820" cy="276" r="36" fill="white" fill-opacity=".05"/>
    <circle cx="820" cy="276" r="8" fill="white"/>
    <text x="820" y="340" text-anchor="middle" fill="white" font-family="Inter,Arial" font-size="22" font-weight="700">Beijing</text>
  </g>
  <g opacity=".72">
    <circle cx="430" cy="410" r="34" fill="white" fill-opacity=".05"/>
    <circle cx="430" cy="410" r="7" fill="white"/>
    <text x="430" y="468" text-anchor="middle" fill="white" font-family="Inter,Arial" font-size="22" font-weight="700">Hangzhou</text>
  </g>
  <g opacity=".42">
    <circle cx="1010" cy="436" r="4" fill="#fff"/>
    <circle cx="1088" cy="316" r="3" fill="#fff"/>
    <circle cx="968" cy="252" r="2" fill="#fff"/>
    <circle cx="350" cy="280" r="3" fill="#fff"/>
    <circle cx="250" cy="380" r="2" fill="#fff"/>
    <circle cx="720" cy="500" r="3" fill="#fff"/>
  </g>
  <text x="80" y="118" fill="white" font-family="Inter,Arial" font-size="64" font-weight="800">LifeMap</text>
  <text x="84" y="164" fill="#9fb2c8" font-family="Inter,Arial" font-size="24">Relationship-powered city decision map</text>
  <text x="84" y="206" fill="#64e6ff" font-family="Inter,Arial" font-size="18">Map your people. Compare cities. Decide your next move.</text>
</svg>
